<svg width="220" height="64" viewBox="0 0 220 64" fill="none" xmlns="http://www.w3.org/2000/svg">
<g id="Layer_1" clip-path="url(#clip0_215_408)">
<path id="Vector" d="M101.79 52.5132H130.9C130.912 52.5132 130.925 52.5189 130.934 52.5289C130.943 52.539 130.948 52.5526 130.948 52.5668V58.0569C130.948 58.0711 130.943 58.0847 130.934 58.0948C130.925 58.1048 130.912 58.1105 130.9 58.1105H97.2688C97.256 58.1105 97.2438 58.1048 97.2348 58.0948C97.2258 58.0847 97.2207 58.0711 97.2207 58.0569V0.914872C97.2207 0.907712 97.222 0.900624 97.2245 0.894029C97.227 0.887433 97.2307 0.881462 97.2353 0.876471C97.2399 0.87148 97.2454 0.86757 97.2513 0.864972C97.2573 0.862374 97.2637 0.861145 97.2701 0.86135C97.2764 0.861382 97.2826 0.862892 97.2883 0.865793C97.2939 0.868694 97.299 0.872917 97.3031 0.87817L101.729 5.96154C101.737 5.97136 101.742 5.9845 101.742 5.99824V52.4674C101.742 52.4816 101.747 52.4952 101.756 52.5052C101.765 52.5153 101.778 52.5209 101.79 52.5209V52.5132Z" fill="#2B2B2B"/>
<path id="Vector_2" d="M91.9408 15.0752V57.0512C91.9408 57.0638 91.9363 57.0758 91.9283 57.0847C91.9203 57.0936 91.9095 57.0986 91.8982 57.0986H88.1168C88.1055 57.0986 88.0947 57.0936 88.0867 57.0847C88.0787 57.0758 88.0742 57.0638 88.0742 57.0512V20.4705C88.0745 20.4599 88.0779 20.4497 88.0838 20.4415L91.8653 15.0492C91.8692 15.0447 91.8739 15.0412 91.8791 15.0388C91.8843 15.0364 91.8899 15.0352 91.8955 15.0352C91.9011 15.0352 91.9067 15.0364 91.9119 15.0388C91.917 15.0412 91.9218 15.0447 91.9257 15.0492C91.9331 15.0558 91.9384 15.0649 91.9408 15.0752Z" fill="#C8B362"/>
<path id="Vector_3" d="M16.1303 48.761H10.6078C10.5954 48.7628 10.5828 48.7614 10.5709 48.7568C10.5591 48.7523 10.5484 48.7448 10.5396 48.7348C10.5308 48.7249 10.5242 48.7129 10.5203 48.6996C10.5164 48.6864 10.5153 48.6723 10.5171 48.6585V44.2557C10.5175 44.2438 10.522 44.2325 10.5297 44.2242C10.5374 44.216 10.5476 44.2113 10.5583 44.2114H21.8917C21.9177 44.2108 21.9429 44.2213 21.9622 44.2406C21.9816 44.2598 21.9937 44.2866 21.9961 44.3153C22.5247 50.2995 19.2032 55.8049 13.8702 57.059C11.1241 57.7043 8.54586 57.3266 6.13565 55.9257C1.27222 53.0981 -0.615777 46.49 1.38754 40.9295C2.3965 38.1152 4.36545 35.8606 6.86339 34.6594C10.4815 32.8992 15.0016 33.3442 18.1638 36.2132C19.7785 37.6782 20.9136 39.5858 21.569 41.9358C21.5869 41.9985 21.569 42.0306 21.5059 42.0306H15.8213C15.8015 42.0312 15.7818 42.0257 15.7646 42.0146C15.7474 42.0036 15.7333 41.9874 15.7239 41.9679C14.6117 39.9018 12.6605 39.0714 10.5611 39.414C6.69312 40.0425 5.10585 44.791 6.61898 48.4368C7.6076 50.8225 9.8622 52.0505 12.1868 51.7676C14.0304 51.5443 15.3655 50.5804 16.1921 48.8757C16.197 48.8661 16.2001 48.8555 16.2013 48.8445C16.2024 48.8335 16.2017 48.8223 16.199 48.8117C16.1963 48.801 16.1918 48.7911 16.1857 48.7824C16.1795 48.7737 16.1719 48.7664 16.1632 48.761C16.1524 48.7581 16.1411 48.7581 16.1303 48.761Z" fill="#C8B362"/>
<path id="Vector_4" d="M168.055 35.136C168.055 35.1222 168.06 35.109 168.068 35.0992C168.077 35.0895 168.089 35.084 168.101 35.084H177.411C183.127 35.084 187.761 40.0542 187.761 46.1867V46.6944C187.761 52.8253 183.127 57.7971 177.411 57.7971H168.101C168.089 57.7971 168.077 57.7916 168.068 57.7818C168.06 57.7721 168.055 57.7588 168.055 57.7451V35.136ZM173.41 40.7148L173.429 52.1631C173.429 52.1769 173.434 52.1902 173.443 52.1999C173.451 52.2097 173.463 52.2151 173.476 52.2151L177.153 52.2075C180.057 52.2075 182.407 49.6566 182.402 46.5246V46.3166C182.402 43.1831 180.039 40.6491 177.133 40.6583H173.456C173.444 40.6583 173.432 40.6637 173.423 40.6735C173.415 40.6832 173.41 40.6965 173.41 40.7103V40.7148Z" fill="#2B2B2B"/>
<path id="Vector_5" d="M28.2179 44.4912C28.2179 44.6288 28.2453 44.6364 28.3016 44.5156C29.3232 42.3226 31.3059 41.5702 33.452 41.6803C33.4711 41.6811 33.4891 41.6902 33.5022 41.7057C33.5153 41.7211 33.5224 41.7417 33.522 41.7629V47.1521C33.522 47.1693 33.516 47.1858 33.5052 47.1981C33.4945 47.2104 33.4798 47.2175 33.4644 47.2179C32.7476 47.2179 31.9993 47.1537 31.3128 47.3907C29.6294 47.9703 29.3836 49.6449 29.3987 51.5351C29.4133 53.2938 29.4165 55.0887 29.4083 56.9197C29.4083 56.9341 29.4058 56.9484 29.4008 56.9616C29.3958 56.9749 29.3885 56.987 29.3793 56.9971C29.3701 57.0072 29.3592 57.0151 29.3472 57.0205C29.3352 57.0259 29.3224 57.0285 29.3095 57.0283H24.5037C24.494 57.0298 24.4841 57.0288 24.4748 57.0254C24.4655 57.0219 24.4571 57.0161 24.4501 57.0084C24.4432 57.0007 24.438 56.9913 24.4349 56.9809C24.4318 56.9706 24.4309 56.9596 24.4323 56.9488V42.0764C24.4309 42.0658 24.4318 42.055 24.4348 42.0448C24.4378 42.0347 24.4429 42.0254 24.4497 42.0179C24.4565 42.0103 24.4648 42.0046 24.4739 42.0012C24.4831 41.9978 24.4928 41.9969 24.5023 41.9984H28.167C28.1828 41.9984 28.198 42.0053 28.2093 42.0176C28.2206 42.0299 28.2271 42.0466 28.2275 42.0642L28.2179 44.4912Z" fill="#C8B362"/>
<path id="Vector_6" d="M39.3877 42.035C43.5632 40.6954 48.2262 43.0673 49.0349 48.1079C49.5746 51.4723 48.1452 54.9193 45.351 56.4288C43.674 57.3519 41.7637 57.6072 39.9383 57.1521C36.0401 56.2345 33.6221 52.2584 34.446 47.8509C34.9719 44.9866 36.8777 42.8395 39.3877 42.035ZM44.1935 49.5194C44.1898 48.7932 43.9275 48.0984 43.464 47.5877C43.0005 47.0769 42.3739 46.7921 41.7219 46.7957C41.0699 46.7921 40.4433 47.0769 39.9799 47.5877C39.5164 48.0984 39.254 48.7932 39.2504 49.5194C39.2544 50.2454 39.5169 50.94 39.9803 51.4507C40.4437 51.9613 41.0701 52.2463 41.7219 52.2431C42.3738 52.2463 43.0002 51.9613 43.4636 51.4507C43.927 50.94 44.1895 50.2454 44.1935 49.5194Z" fill="#C8B362"/>
<path id="Vector_7" d="M71.8663 44.0624C71.8663 44.1664 71.891 44.1756 71.9446 44.0915C73.0659 42.29 74.6546 41.4953 76.7105 41.7073C81.4504 42.1967 83.4386 47.9851 82.0147 52.5531C81.0261 55.7264 78.4214 57.6762 75.3786 57.3153C74.2994 57.1868 73.3382 56.6883 72.6778 55.7172C72.616 55.6254 72.5858 55.6377 72.5858 55.7524V63.5518C72.5867 63.5604 72.5858 63.5691 72.5833 63.5773C72.5807 63.5855 72.5764 63.5929 72.5708 63.5989C72.5653 63.605 72.5585 63.6096 72.5511 63.6122C72.5437 63.6149 72.5359 63.6157 72.5281 63.6145H67.6784C67.6613 63.6145 67.6449 63.6069 67.6328 63.5934C67.6207 63.5799 67.6139 63.5616 67.6139 63.5426V42.0713C67.6125 42.0603 67.6135 42.0491 67.6166 42.0386C67.6198 42.028 67.6251 42.0185 67.6322 42.0106C67.6392 42.0028 67.6478 41.9968 67.6573 41.9933C67.6667 41.9898 67.6768 41.9887 67.6867 41.9902H71.7922C71.8043 41.9881 71.8166 41.9892 71.8283 41.9934C71.8399 41.9977 71.8505 42.005 71.8591 42.0147C71.8677 42.0245 71.8741 42.0363 71.8777 42.0494C71.8814 42.0624 71.8822 42.0762 71.8801 42.0897L71.8663 44.0624ZM77.4959 49.4685C77.4819 48.7427 77.2095 48.0528 76.7388 47.5507C76.2681 47.0485 75.6376 46.7751 74.9859 46.7907C74.6625 46.7943 74.3428 46.869 74.0453 47.0104C73.7478 47.1519 73.4783 47.3574 73.2523 47.6151C73.0262 47.8729 72.8481 48.1778 72.7281 48.5123C72.608 48.8469 72.5485 49.2046 72.5528 49.5648C72.568 50.2906 72.8413 50.98 73.3128 51.4814C73.7843 51.9827 74.4153 52.2549 75.067 52.238C75.3897 52.2339 75.7086 52.1589 76.0054 52.0174C76.3021 51.876 76.5709 51.6708 76.7965 51.4136C77.022 51.1564 77.1999 50.8523 77.3199 50.5185C77.4399 50.1848 77.4997 49.828 77.4959 49.4685Z" fill="#C8B362"/>
<path id="Vector_8" d="M60.6202 54.923C60.6198 54.9091 60.6146 54.8958 60.6056 54.8861C60.5967 54.8764 60.5846 54.871 60.5721 54.871C60.5643 54.8717 60.5568 54.8745 60.5502 54.879C60.5435 54.8835 60.5378 54.8897 60.5337 54.897C59.4997 56.8958 57.2836 57.6038 55.2995 57.301C53.9429 57.0971 52.8861 56.4095 52.1291 55.238C51.4178 54.1415 51.1995 52.8324 51.2036 51.3643C51.2109 48.2038 51.2109 45.0978 51.2036 42.0463C51.2027 42.0399 51.2031 42.0333 51.2049 42.027C51.2067 42.0208 51.2098 42.0151 51.214 42.0105C51.2181 42.0059 51.2232 42.0024 51.2288 42.0004C51.2344 41.9984 51.2404 41.9979 51.2462 41.9989H56.1096C56.1189 41.9974 56.1285 41.9983 56.1374 42.0016C56.1464 42.0049 56.1546 42.0105 56.1612 42.0179C56.1679 42.0253 56.1729 42.0344 56.1759 42.0444C56.1788 42.0544 56.1797 42.065 56.1783 42.0754C56.1783 44.7975 56.1783 47.4794 56.1783 50.121C56.1783 51.4683 56.5902 52.5755 57.9784 52.6092C59.3281 52.6428 59.9117 51.5478 59.913 50.1745C59.913 47.2872 59.913 44.5916 59.913 42.0876C59.9116 42.0755 59.9128 42.0631 59.9164 42.0516C59.92 42.04 59.926 42.0295 59.9338 42.0209C59.9417 42.0123 59.9512 42.0059 59.9616 42.0021C59.9721 41.9983 59.9832 41.9972 59.9941 41.9989H64.8094C64.8201 41.9971 64.831 41.9981 64.8412 42.0018C64.8515 42.0056 64.8608 42.012 64.8684 42.0204C64.876 42.0289 64.8817 42.0393 64.8851 42.0507C64.8884 42.0621 64.8893 42.0742 64.8877 42.0861V56.9202C64.8898 56.9349 64.8887 56.9499 64.8846 56.964C64.8806 56.9781 64.8736 56.991 64.8642 57.0015C64.8549 57.0121 64.8434 57.0201 64.8308 57.0248C64.8182 57.0295 64.8048 57.0309 64.7916 57.0288H60.7025C60.6791 57.0288 60.6566 57.0186 60.6399 57.0003C60.6232 56.9819 60.6137 56.957 60.6133 56.931L60.6202 54.923Z" fill="#C8B362"/>
<path id="Vector_9" d="M145.113 55.708C144.955 55.9771 144.778 56.2327 144.586 56.4726C143.786 57.377 142.89 57.9015 141.899 58.0463C139.885 58.342 138.184 57.7302 136.795 56.2111C134.496 53.7016 134.212 49.5664 135.524 46.5491C136.622 44.0135 138.827 42.527 141.38 42.6876C142.902 42.7824 144.223 43.4935 145.079 44.9081C145.156 45.0335 145.194 45.0213 145.193 44.8684L145.186 43.0959C145.186 43.0827 145.188 43.0696 145.192 43.0574C145.197 43.0452 145.203 43.034 145.211 43.0246C145.22 43.0152 145.23 43.0078 145.241 43.0027C145.252 42.9976 145.263 42.995 145.275 42.995H149.311C149.32 42.9948 149.328 42.9966 149.337 43.0002C149.345 43.0039 149.353 43.0094 149.359 43.0164C149.365 43.0234 149.371 43.0317 149.374 43.0409C149.377 43.0501 149.379 43.0599 149.379 43.0699V57.719C149.381 57.7294 149.38 57.74 149.377 57.75C149.374 57.76 149.369 57.7691 149.362 57.7765C149.356 57.7839 149.347 57.7895 149.338 57.7928C149.329 57.7961 149.32 57.797 149.311 57.7955H145.259C145.249 57.797 145.239 57.796 145.229 57.7924C145.22 57.7889 145.211 57.783 145.204 57.7751C145.197 57.7673 145.192 57.7577 145.189 57.7472C145.185 57.7366 145.184 57.7254 145.186 57.7144V55.7401C145.188 55.6392 145.163 55.6285 145.113 55.708ZM144.502 50.4656C144.508 50.1108 144.452 49.7582 144.336 49.4278C144.22 49.0974 144.046 48.7957 143.825 48.5401C143.604 48.2844 143.341 48.0797 143.049 47.9378C142.757 47.7959 142.442 47.7194 142.124 47.7129C141.806 47.7018 141.489 47.7607 141.192 47.8861C140.894 48.0116 140.622 48.201 140.39 48.4438C140.158 48.6865 139.972 48.9777 139.841 49.3007C139.711 49.6238 139.639 49.9723 139.629 50.3264C139.622 50.6811 139.678 51.0338 139.794 51.3643C139.91 51.6948 140.084 51.9966 140.304 52.2523C140.525 52.508 140.789 52.7127 141.081 52.8546C141.373 52.9965 141.687 53.0728 142.006 53.0791C142.648 53.101 143.272 52.838 143.74 52.3479C144.208 51.8578 144.482 51.1808 144.502 50.4656Z" fill="#2B2B2B"/>
<path id="Vector_10" d="M155.93 45.0254C155.93 45.1661 155.965 45.1783 156.032 45.0575C157.11 43.1398 159.053 42.4883 161.052 42.7238C163.637 43.0296 165.171 45.2716 165.192 48.0977C165.205 50.7485 165.205 53.96 165.192 57.7323C165.192 57.7485 165.186 57.764 165.176 57.7755C165.165 57.787 165.151 57.7934 165.137 57.7934H160.364C160.347 57.7934 160.33 57.7859 160.318 57.7724C160.306 57.7589 160.299 57.7406 160.299 57.7216C160.292 54.9474 160.292 52.2605 160.299 49.6607C160.299 48.1222 159.5 47.0823 158.049 47.4004C157.124 47.6022 156.628 48.5045 156.626 49.5001C156.62 52.3079 156.62 55.0433 156.626 57.7063C156.628 57.7181 156.627 57.7303 156.624 57.7417C156.621 57.7531 156.615 57.7634 156.607 57.7719C156.6 57.7804 156.59 57.7868 156.58 57.7905C156.57 57.7943 156.559 57.7953 156.548 57.7934H151.803C151.792 57.7952 151.781 57.7942 151.771 57.7904C151.761 57.7867 151.751 57.7803 151.744 57.7719C151.736 57.7635 151.73 57.7531 151.726 57.7418C151.723 57.7304 151.722 57.7182 151.723 57.7063V43.0648C151.722 43.0551 151.723 43.0453 151.726 43.036C151.729 43.0268 151.733 43.0184 151.74 43.0116C151.746 43.0048 151.754 42.9997 151.762 42.9967C151.77 42.9937 151.779 42.9929 151.788 42.9945H155.864C155.874 42.9929 155.884 42.9939 155.893 42.9973C155.902 43.0006 155.91 43.0063 155.917 43.0139C155.924 43.0215 155.929 43.0307 155.932 43.0409C155.935 43.051 155.936 43.0619 155.934 43.0725L155.93 45.0254Z" fill="#2B2B2B"/>
<path id="Vector_11" d="M194.121 51.3205C194.436 54.0258 197.629 54.5825 198.876 52.4246C198.889 52.4029 198.906 52.385 198.926 52.3727C198.947 52.3604 198.97 52.3541 198.993 52.3543L203.439 52.3268C203.451 52.3263 203.463 52.3286 203.474 52.3334C203.485 52.3383 203.495 52.3456 203.503 52.3549C203.512 52.3641 203.518 52.3753 203.523 52.3875C203.527 52.3998 203.53 52.4129 203.529 52.4262C203.531 52.4353 203.531 52.4446 203.529 52.4537C201.658 60.2745 190.92 59.8769 189.432 52.0041C188.905 49.2162 189.738 46.3457 191.735 44.5105C193.731 42.6754 196.594 42.2166 199.079 43.0837C202.246 44.1848 203.999 47.4529 203.766 51.0941C203.764 51.1228 203.752 51.1497 203.734 51.1693C203.715 51.1889 203.69 51.1997 203.664 51.1997H194.209C194.142 51.2037 194.113 51.244 194.121 51.3205ZM197.316 46.4589C195.971 46.1392 194.733 46.728 194.234 48.2191C194.206 48.3001 194.234 48.3414 194.309 48.3414H199.027C199.041 48.3414 199.053 48.3355 199.063 48.3248C199.073 48.3142 199.078 48.2998 199.078 48.2848C199.079 48.2788 199.079 48.2726 199.078 48.2665C198.953 47.8194 198.724 47.4169 198.415 47.0995C198.105 46.7822 197.727 46.5612 197.316 46.4589Z" fill="#2B2B2B"/>
<path id="Vector_12" d="M211.439 51.123L214.061 43.0254C214.065 43.0151 214.071 43.0061 214.079 42.9998C214.087 42.9936 214.097 42.9902 214.107 42.9902H219.22C219.233 42.9902 219.245 42.9959 219.254 43.0059C219.263 43.0159 219.268 43.0296 219.268 43.0438C219.269 43.0508 219.269 43.0581 219.268 43.0652L213.364 57.7586C213.36 57.7681 213.354 57.7763 213.346 57.782C213.338 57.7877 213.329 57.7907 213.32 57.7907H209.238C209.228 57.7904 209.22 57.7872 209.212 57.7815C209.204 57.7758 209.198 57.7679 209.194 57.7586L203.29 43.0667C203.287 43.0603 203.285 43.0534 203.285 43.0463C203.285 43.0392 203.286 43.0322 203.288 43.0256C203.291 43.019 203.294 43.013 203.299 43.008C203.303 43.003 203.308 42.999 203.314 42.9963C203.321 42.9949 203.327 42.9949 203.334 42.9963H208.708C208.718 42.9963 208.727 42.9997 208.735 43.006C208.743 43.0123 208.75 43.0212 208.753 43.0315L211.348 51.1276C211.353 51.1408 211.362 51.1514 211.373 51.1574C211.385 51.1634 211.398 51.1642 211.41 51.1597C211.417 51.1567 211.423 51.1518 211.428 51.1454C211.434 51.139 211.437 51.1313 211.439 51.123Z" fill="#2B2B2B"/>
<path id="Vector_13" d="M111.622 17.8333V46.3807C111.622 46.3928 111.617 46.4045 111.61 46.4131C111.602 46.4217 111.591 46.4265 111.58 46.4265H107.799C107.788 46.4261 107.778 46.4212 107.77 46.4127C107.763 46.4041 107.758 46.3927 107.758 46.3807V13.6201C107.758 13.614 107.759 13.6079 107.761 13.6022C107.763 13.5965 107.766 13.5914 107.77 13.5871C107.774 13.5828 107.779 13.5795 107.784 13.5773C107.789 13.5751 107.795 13.574 107.8 13.5742C107.806 13.5743 107.811 13.5755 107.815 13.5779C107.82 13.5802 107.824 13.5837 107.828 13.588L111.611 17.8012C111.614 17.8054 111.617 17.8104 111.619 17.8159C111.621 17.8215 111.622 17.8274 111.622 17.8333Z" fill="#C8B362"/>
</g>
<defs>
<clipPath id="clip0_215_408">
<rect width="218.667" height="62.7637" fill="white" transform="translate(0.601562 0.861328)"/>
</clipPath>
</defs>
</svg>
